<svg id="Calque_1" data-name="Calque 1" xmlns="http://www.w3.org/2000/svg" viewBox="0 0 301.33 39.31"><defs><style>.cls-1{opacity:0.2;}</style></defs><title>moodtube-logo</title><path d="M11.16,17.24l.58,21H.07V1.05H16.43l6.73,20h.26l5.84-20H46.16V38.26H34l.37-20.92L34,17.29l-6.94,21H18.25l-6.83-21Z" transform="translate(-0.07)"/><path d="M47.15,19.44a19.91,19.91,0,0,1,1.58-8.07,17.93,17.93,0,0,1,4.34-6.12,19.29,19.29,0,0,1,6.54-3.89,25.28,25.28,0,0,1,16.4,0,19.58,19.58,0,0,1,6.57,3.89,17.75,17.75,0,0,1,4.36,6.12,19.9,19.9,0,0,1,1.58,8.07,20.46,20.46,0,0,1-1.58,8.15,18.39,18.39,0,0,1-4.36,6.28,19.56,19.56,0,0,1-6.57,4,24.38,24.38,0,0,1-16.4,0,19.27,19.27,0,0,1-6.54-4,18.57,18.57,0,0,1-4.34-6.28A20.47,20.47,0,0,1,47.15,19.44Zm13.3,0A9.81,9.81,0,0,0,61,22.81a8.06,8.06,0,0,0,1.52,2.63,6.66,6.66,0,0,0,2.34,1.71,7.2,7.2,0,0,0,2.94.6,6.93,6.93,0,0,0,5.26-2.31,7.84,7.84,0,0,0,1.55-2.63,9.82,9.82,0,0,0,.55-3.36,9.44,9.44,0,0,0-.55-3.28,7.06,7.06,0,0,0-1.55-2.52,7.22,7.22,0,0,0-5.26-2.18,7.48,7.48,0,0,0-2.94.58,6.87,6.87,0,0,0-2.34,1.6A7.24,7.24,0,0,0,61,16.16,9.43,9.43,0,0,0,60.45,19.44Z" transform="translate(-0.07)"/><path d="M90,19.44a19.91,19.91,0,0,1,1.58-8.07A17.93,17.93,0,0,1,95.9,5.26a19.29,19.29,0,0,1,6.54-3.89,25.28,25.28,0,0,1,16.4,0,19.58,19.58,0,0,1,6.57,3.89,17.75,17.75,0,0,1,4.36,6.12,19.9,19.9,0,0,1,1.58,8.07,20.46,20.46,0,0,1-1.58,8.15,18.39,18.39,0,0,1-4.36,6.28,19.56,19.56,0,0,1-6.57,4,24.38,24.38,0,0,1-16.4,0,19.27,19.27,0,0,1-6.54-4,18.57,18.57,0,0,1-4.34-6.28A20.47,20.47,0,0,1,90,19.44Zm13.3,0a9.81,9.81,0,0,0,.55,3.36,8.06,8.06,0,0,0,1.52,2.63,6.66,6.66,0,0,0,2.34,1.71,7.2,7.2,0,0,0,2.94.6,6.93,6.93,0,0,0,5.26-2.31,7.84,7.84,0,0,0,1.55-2.63,9.82,9.82,0,0,0,.55-3.36,9.44,9.44,0,0,0-.55-3.28,7.06,7.06,0,0,0-1.55-2.52,7.22,7.22,0,0,0-5.26-2.18,7.48,7.48,0,0,0-2.94.58,6.87,6.87,0,0,0-2.34,1.6,7.24,7.24,0,0,0-1.52,2.52A9.43,9.43,0,0,0,103.28,19.44Z" transform="translate(-0.07)"/><path d="M132.39,38.26V1.05h13.87a39.94,39.94,0,0,1,8.43.87,19.56,19.56,0,0,1,7.09,3,15.41,15.41,0,0,1,4.91,5.65,19.07,19.07,0,0,1,1.84,8.88,19,19,0,0,1-1.76,8.46,16.54,16.54,0,0,1-4.7,5.86,19.9,19.9,0,0,1-6.78,3.39,28.77,28.77,0,0,1-8,1.1Zm12-26.59V27.49h2.31q4.41,0,6.78-1.91t2.36-6.26a7,7,0,0,0-2.36-5.63,9.39,9.39,0,0,0-6.31-2Z" transform="translate(-0.07)"/><path class="cls-1" d="M191.09,38.26H178.59V11.61h-9.14V1.05h30.8V11.61h-9.14Z" transform="translate(-0.07)"/><path class="cls-1" d="M220.79,39.31a21.68,21.68,0,0,1-7.59-1.21,15.25,15.25,0,0,1-5.39-3.31,13.16,13.16,0,0,1-3.21-5,17.75,17.75,0,0,1-1.05-6.17V1.05h12.51V22.28a6.21,6.21,0,0,0,1.29,4.18,5.2,5.2,0,0,0,7.3,0,6.21,6.21,0,0,0,1.29-4.18V1.05h12.45v22.6a16.68,16.68,0,0,1-1.13,6.17,13.73,13.73,0,0,1-3.34,5,15.74,15.74,0,0,1-5.49,3.31A22.13,22.13,0,0,1,220.79,39.31Z" transform="translate(-0.07)"/><path class="cls-1" d="M264.93,18.92a10,10,0,0,1,2.58,1,9.29,9.29,0,0,1,2.26,1.79,8.11,8.11,0,0,1,2.15,5.65,9.45,9.45,0,0,1-4.49,8.49,13.87,13.87,0,0,1-4.62,1.84,25.68,25.68,0,0,1-5.33.55H240.6V1.05h15.29a36.31,36.31,0,0,1,4.81.34,15.78,15.78,0,0,1,4.7,1.37,9.23,9.23,0,0,1,3.57,3,8.66,8.66,0,0,1,1.42,5.18,7.86,7.86,0,0,1-1.5,4.94,8.91,8.91,0,0,1-4,2.89Zm-12.66-8.15v4.57h3.36a3.6,3.6,0,0,0,2.15-.6,2.14,2.14,0,0,0,.84-1.87,1.71,1.71,0,0,0-.89-1.58,4.64,4.64,0,0,0-2.37-.53Zm0,12.61v5H256a4,4,0,0,0,2.39-.66,2.21,2.21,0,0,0,.92-1.92,1.82,1.82,0,0,0-.39-1.21,3,3,0,0,0-1-.76,4.28,4.28,0,0,0-1.24-.39,7.83,7.83,0,0,0-1.24-.11Z" transform="translate(-0.07)"/><path class="cls-1" d="M274.91,1.05h25.59V11.46H286.68v3.21h13v9.72h-13v3.47H301.4V38.26H274.91Z" transform="translate(-0.07)"/></svg>