<?xml version="1.0" encoding="utf-8"?>
<!-- Generator: Adobe Illustrator 21.0.0, SVG Export Plug-In . SVG Version: 6.00 Build 0)  -->
<svg version="1.1" id="Calque_1" xmlns="http://www.w3.org/2000/svg" xmlns:xlink="http://www.w3.org/1999/xlink" x="0px" y="0px"
	 viewBox="0 0 46.2 35.5" style="enable-background:new 0 0 46.2 35.5;" xml:space="preserve">
<style type="text/css">
	.st0{opacity:0.5;fill:#010101;enable-background:new    ;}
	.st1{opacity:0.5;enable-background:new    ;}
	.st2{fill:#010101;}
</style>
<title>play</title>
<path class="st0" d="M18.3,3.7l-8.1,5.6H5.4c-2.2,0-3.9,1.7-3.9,3.9v7.8c0,2.2,1.7,3.9,3.9,3.9h4.7l8.1,5.6c2.4,1.1,5.2,0,6.3-2.4
	c0.3-0.7,0.4-1.3,0.4-2V7.9c0-2.6-2.2-4.8-4.8-4.8C19.5,3.3,18.8,3.4,18.3,3.7z"/>
<g class="st1">
	<path class="st2" d="M28.1,9.5L28.1,9.5c-0.7,0.6-0.9,1.5-0.4,2.2c1.1,1.5,1.8,3.4,1.8,5.4c0,1.8-0.5,3.6-1.5,5
		c-0.4,0.7-0.3,1.6,0.3,2.1l0.1,0.1c0.7,0.6,1.8,0.4,2.3-0.3c1.3-2,2-4.3,2-6.9c0-2.7-0.9-5.2-2.4-7.3C29.9,9.1,28.8,9,28.1,9.5z"/>
	<path class="st2" d="M33.2,6.2L33.2,6.2c-0.7,0.6-0.8,1.5-0.3,2.3c1.8,2.4,2.9,5.4,2.9,8.6c0,3.1-0.9,5.9-2.6,8.3
		c-0.5,0.7-0.3,1.7,0.3,2.2l0,0c0.7,0.6,1.8,0.4,2.3-0.3c2-2.9,3.2-6.4,3.1-10.2c0-4-1.3-7.6-3.5-10.6C35,5.8,33.9,5.7,33.2,6.2z"/>
</g>
</svg>
