<?xml version="1.0" encoding="utf-8"?>
<!-- Generator: Adobe Illustrator 21.0.0, SVG Export Plug-In . SVG Version: 6.00 Build 0)  -->
<svg version="1.1" id="Calque_1" xmlns="http://www.w3.org/2000/svg" xmlns:xlink="http://www.w3.org/1999/xlink" x="0px" y="0px"
	 viewBox="0 0 30 35.5" style="enable-background:new 0 0 30 35.5;" xml:space="preserve">
<style type="text/css">
	.st0{fill:#FFFFFF;}
	.st1{opacity:0.5;fill:#010101;enable-background:new    ;}
</style>
<title>play</title>
<g>
	
		<rect x="273.3" y="183.8" transform="matrix(0.8836 -0.4682 0.4682 0.8836 -52.7126 157.4521)" class="st0" width="34.2" height="2"/>
</g>
<g>
	<path class="st1" d="M5.5,24.1c0.6,0.5,1.4,0.8,2.3,0.8h4.3l7.5,5.2c2.2,1,4.8,0,5.8-2.2c0.3-0.6,0.4-1.2,0.4-1.8V13.4L5.5,24.1z"
		/>
	<path class="st1" d="M25.8,11.1V9.3c0-2.4-2-4.4-4.4-4.4c-0.6,0-1.2,0.1-1.8,0.4l-7.5,5.2H7.8c-2,0-3.6,1.6-3.6,3.6v7.2
		c0,0.4,0.1,0.8,0.2,1.1L25.8,11.1z"/>
</g>
</svg>
